<svg xmlns="http://www.w3.org/2000/svg" xmlns:xlink="http://www.w3.org/1999/xlink" viewBox="0 0 845 969.01"><defs><style>.cls-1{fill:url(#radial-gradient);}.cls-2,.cls-6{fill:#fff;}.cls-2{fill-opacity:0.2;}.cls-15,.cls-3{fill-opacity:0.6;stroke:#000;stroke-opacity:0.6;}.cls-10,.cls-15,.cls-16,.cls-3,.cls-4,.cls-5,.cls-6,.cls-7,.cls-8,.cls-9{stroke-miterlimit:3;}.cls-4{fill:#a3d9f4;stroke:#1788be;}.cls-5{fill:#d50272;}.cls-10,.cls-16,.cls-5,.cls-8,.cls-9{stroke:#b50160;}.cls-6{stroke:#fff;}.cls-16,.cls-7,.cls-9{fill:#0d5071;}.cls-7{stroke:#393;}.cls-8{fill:#ff988e;}.cls-10{fill:#ff6556;}.cls-11,.cls-13,.cls-14{isolation:isolate;}.cls-11,.cls-13{font-size:12px;font-family:Calibri;}.cls-11{fill:#feffff;}.cls-12{fill:#1897d5;}.cls-12,.cls-15,.cls-16,.cls-43{fill-rule:evenodd;}.cls-13,.cls-19{fill:#1076a7;}.cls-13{letter-spacing:-0.23em;}.cls-14{font-size:16px;font-family:Calibri-Bold, Calibri;font-weight:700;}.cls-17,.cls-18,.cls-19,.cls-23,.cls-33,.cls-36,.cls-40{font-size:11px;}.cls-17,.cls-40{fill:#1ba1e2;}.cls-17,.cls-20,.cls-40{font-family:MalgunGothicBold, Malgun Gothic;}.cls-17,.cls-18,.cls-19,.cls-24{letter-spacing:-0.02em;}.cls-18,.cls-23,.cls-33,.cls-36{fill:#fcfcfc;}.cls-18,.cls-19,.cls-23,.cls-33,.cls-36{font-family:MalgunGothic, Malgun Gothic;}.cls-20{font-size:15.5px;fill:#020202;}.cls-21,.cls-23{letter-spacing:-0.04em;}.cls-22{letter-spacing:-0.03em;}.cls-25,.cls-33{letter-spacing:-0.03em;}.cls-26{letter-spacing:-0.07em;}.cls-27{letter-spacing:-0.06em;}.cls-28{letter-spacing:0.01em;}.cls-29{letter-spacing:-0.03em;}.cls-30{letter-spacing:-0.03em;}.cls-31{letter-spacing:0.02em;}.cls-32{letter-spacing:-0.04em;}.cls-34{letter-spacing:0.02em;}.cls-35{letter-spacing:-0.02em;}.cls-36{letter-spacing:-0.03em;}.cls-37{letter-spacing:-0.04em;}.cls-38,.cls-40{letter-spacing:-0.06em;}.cls-39{letter-spacing:-0.03em;}.cls-41{letter-spacing:-0.03em;}.cls-42,.cls-43{fill:none;stroke:#1897d5;stroke-miterlimit:10;}</style><radialGradient id="radial-gradient" cx="116.36" cy="880.59" r="0.73" gradientTransform="matrix(845, 0, 0, -969.01, -97904, 853786.82)" gradientUnits="userSpaceOnUse"><stop offset="0" stop-color="#fff"/><stop offset="1" stop-color="#cacaca"/></radialGradient></defs><title>OJ105079498</title><g id="bg"><g id="group1006-1"><g id="shape1007-2"><rect class="cls-1" width="845" height="969.01"/></g><g id="shape1008-6"><rect class="cls-2" y="65.45" width="273.67" height="313.04"/></g><g id="shape1009-8"><rect class="cls-2" x="172.84" width="134.43" height="85.38"/></g><g id="shape1010-10"><rect class="cls-2" x="470.51" y="1.42" width="374.49" height="441.11"/></g><g id="shape1011-12"><rect class="cls-2" x="144.03" y="321.58" width="273.67" height="298.81"/></g><g id="shape1012-14"><rect class="cls-2" y="570.59" width="211.25" height="341.5"/></g><g id="shape1013-16"><rect class="cls-2" y="904.98" width="148.84" height="64.03"/></g><g id="shape1014-18"><ellipse class="cls-2" cx="129.03" cy="169.51" rx="91.82" ry="136.07"/></g><g id="shape1015-20"><ellipse class="cls-2" cx="273.66" cy="342.92" rx="57.61" ry="85.38"/></g><g id="shape1016-22"><ellipse class="cls-2" cx="386.49" cy="218.42" rx="69.62" ry="103.16"/></g><g id="shape1017-24"><ellipse class="cls-2" cx="345.68" cy="76.13" rx="50.41" ry="74.7"/></g><g id="shape1018-26"><ellipse class="cls-2" cx="105.62" cy="812.49" rx="96.02" ry="142.29"/></g><g id="shape1019-28"><ellipse class="cls-2" cx="50.41" cy="894.31" rx="50.41" ry="74.7"/></g><g id="shape1020-30"><ellipse class="cls-2" cx="192.04" cy="591.94" rx="72.02" ry="106.72"/></g><g id="shape1021-32"><ellipse class="cls-2" cx="237.66" cy="695.1" rx="50.41" ry="74.7"/></g><g id="shape1022-34"><ellipse class="cls-2" cx="369.69" cy="848.06" rx="76.82" ry="113.83"/></g><g id="shape1023-36"><ellipse class="cls-2" cx="465.71" cy="741.34" rx="57.61" ry="85.38"/></g><g id="shape1024-38"><ellipse class="cls-2" cx="609.75" cy="591.93" rx="163.24" ry="241.9"/></g><g id="shape1025-40"><ellipse class="cls-2" cx="648.15" cy="869.4" rx="57.61" ry="85.38"/></g><g id="shape1026-42"><ellipse class="cls-2" cx="729.77" cy="798.26" rx="110.43" ry="163.64"/></g><g id="shape1027-44"><ellipse class="cls-2" cx="715.37" cy="307.35" rx="110.43" ry="163.64"/></g><g id="shape1028-46"><ellipse class="cls-2" cx="561.73" cy="108.14" rx="67.22" ry="99.6"/></g><g id="shape1029-48"><ellipse class="cls-2" cx="622.95" cy="67.23" rx="39.61" ry="58.7"/></g><g id="shape1030-50"><ellipse class="cls-2" cx="789.79" cy="79.68" rx="52.81" ry="78.26"/></g></g><g id="shape94-52"><g id="shadow94-53"><rect class="cls-3" x="271.5" y="256.51" width="273" height="697"/></g><rect class="cls-4" x="271.5" y="253.51" width="273" height="697"/></g><g id="shape1-57"><g id="shadow1-58"><rect class="cls-3" x="18.5" y="91.51" width="148" height="624"/></g><rect class="cls-4" x="18.5" y="88.51" width="148" height="624"/></g><g id="shape39-62"><g id="shadow39-63"><rect class="cls-3" x="606.5" y="21.51" width="215" height="926"/></g><rect class="cls-4" x="606.5" y="18.51" width="215" height="926"/></g><g id="shape2-67"><g id="shadow2-68"><rect class="cls-3" x="35.5" y="654.51" width="108" height="37" rx="9"/></g><rect class="cls-5" x="35.5" y="651.51" width="108" height="37" rx="9"/></g><g id="shape3-74"><g id="shadow3-75"><rect class="cls-3" x="35.5" y="198.51" width="108" height="33" rx="9"/></g><rect class="cls-5" x="35.5" y="195.51" width="108" height="33" rx="9"/></g><g id="shape4-80"><g id="shadow4-81"><rect class="cls-3" x="35.5" y="249.51" width="108" height="37" rx="9"/></g><rect class="cls-5" x="35.5" y="246.51" width="108" height="37" rx="9"/></g><g id="shape5-87"><g id="shadow5-88"><rect class="cls-3" x="35.5" y="345.51" width="108" height="36" rx="9"/></g><rect class="cls-5" x="35.5" y="342.51" width="108" height="36" rx="9"/></g><g id="shape6-93"><g id="shadow6-94"><rect class="cls-3" x="38.5" y="101.51" width="108" height="36"/></g><rect class="cls-6" x="38.5" y="98.51" width="108" height="36"/></g><g id="shape7-99"><g id="shadow7-100"><rect class="cls-3" x="35.5" y="385.51" width="108" height="36" rx="9"/></g><rect class="cls-5" x="35.5" y="382.51" width="108" height="36" rx="9"/></g><g id="shape10-105"><g id="shadow10-106"><rect class="cls-3" x="35.5" y="290.51" width="108" height="51" rx="9"/></g><rect class="cls-5" x="35.5" y="287.51" width="108" height="51" rx="9"/></g><g id="shape14-113"><g id="shadow14-114"><rect class="cls-3" x="280.5" y="479.51" width="120" height="38" rx="9"/></g><rect class="cls-5" x="280.5" y="476.51" width="120" height="38" rx="9"/></g><g id="shape15-119"><g id="shadow15-120"><rect class="cls-3" x="280.5" y="655.51" width="117" height="34" rx="9"/></g><rect class="cls-5" x="280.5" y="652.51" width="117" height="34" rx="9"/></g><g id="shape16-125"><g id="shadow16-126"><rect class="cls-3" x="280.5" y="568.51" width="119" height="37" rx="9"/></g><rect class="cls-5" x="280.5" y="565.51" width="119" height="37" rx="9"/></g><g id="shape20-131"><g id="shadow20-132"><rect class="cls-3" x="414.5" y="818.51" width="119" height="36" rx="9"/></g><rect class="cls-5" x="414.5" y="815.51" width="119" height="36" rx="9"/></g><g id="shape21-137"><g id="shadow21-138"><rect class="cls-3" x="413.5" y="309.51" width="119" height="31" rx="9"/></g><rect class="cls-7" x="413.5" y="306.51" width="119" height="31" rx="9"/></g><g id="shape40-143"><g id="shadow40-144"><rect class="cls-3" x="617.5" y="34.51" width="191" height="36"/></g><rect class="cls-6" x="617.5" y="31.51" width="191" height="36"/></g><g id="shape95-149"><g id="shadow95-150"><rect class="cls-3" x="282.5" y="269.51" width="116" height="36"/></g><rect class="cls-6" x="282.5" y="266.51" width="116" height="36"/></g><g id="shape115-155"><g id="shadow115-156"><rect class="cls-3" x="35.5" y="153.51" width="108" height="37" rx="9"/></g><rect class="cls-5" x="35.5" y="150.51" width="108" height="37" rx="9"/></g><g id="shape122-162"><g id="shadow122-163"><rect class="cls-3" x="280.5" y="527.51" width="119" height="35" rx="9"/></g><rect class="cls-5" x="280.5" y="524.51" width="119" height="35" rx="9"/></g><g id="shape141-168"><g id="shadow141-169"><rect class="cls-3" x="280.5" y="437.51" width="119" height="37" rx="9"/></g><rect class="cls-5" x="280.5" y="434.51" width="119" height="37" rx="9"/></g><g id="shape144-174"><g id="shadow144-175"><rect class="cls-3" x="414.5" y="859.51" width="120" height="21" rx="9"/></g><rect class="cls-5" x="414.5" y="856.51" width="120" height="21" rx="9"/></g><g id="shape152-180"><g id="shadow152-181"><rect class="cls-3" x="35.5" y="568.51" width="108" height="37" rx="9"/></g><rect class="cls-5" x="35.5" y="565.51" width="108" height="37" rx="9"/></g><g id="shape154-187"><g id="shadow154-188"><rect class="cls-3" x="35.5" y="437.51" width="108" height="37" rx="9"/></g><rect class="cls-5" x="35.5" y="434.51" width="108" height="37" rx="9"/></g><g id="shape156-194"><g id="shadow156-195"><rect class="cls-3" x="36.5" y="528.51" width="108" height="34" rx="9"/></g><rect class="cls-5" x="36.5" y="525.51" width="108" height="34" rx="9"/></g><g id="shape168-200"><g id="shadow168-201"><rect class="cls-3" x="35.5" y="480.51" width="108" height="37" rx="9"/></g><rect class="cls-5" x="35.5" y="477.51" width="108" height="37" rx="9"/></g><g id="shape158-207"><g id="shadow158-208"><rect class="cls-3" x="627.5" y="385.51" width="173" height="549" rx="9"/></g><rect class="cls-8" x="627.5" y="382.51" width="173" height="549" rx="9"/></g><g id="shape42-212"><g id="shadow42-213"><rect class="cls-3" x="638.5" y="773.51" width="146" height="36" rx="9"/></g><rect class="cls-9" x="638.5" y="770.51" width="146" height="36" rx="9"/></g><g id="shape43-218"><g id="shadow43-219"><rect class="cls-3" x="638.5" y="817.51" width="144" height="108" rx="9"/></g><rect class="cls-10" x="638.5" y="814.51" width="144" height="108" rx="9"/><text class="cls-11" transform="translate(741.39 828.54)"> </text><text class="cls-11" transform="translate(744.1 828.54)"> </text><text class="cls-11" transform="translate(746.81 828.54)"> </text><text class="cls-11" transform="translate(749.52 828.54)"> </text><text class="cls-11" transform="translate(752.24 828.54)"> </text><text class="cls-11" transform="translate(754.95 828.54)"> </text></g><g id="shape44-224"><g id="shadow44-225"><rect class="cls-3" x="638.5" y="527.51" width="148" height="35" rx="9"/></g><rect class="cls-9" x="638.5" y="524.51" width="148" height="35" rx="9"/></g><g id="shape45-230"><g id="shadow45-231"><rect class="cls-3" x="638.5" y="568.51" width="147" height="65" rx="9"/></g><rect class="cls-10" x="638.5" y="565.51" width="147" height="65" rx="9"/><text class="cls-11" transform="translate(746.01 579.77)"> </text><text class="cls-11" transform="translate(748.72 579.77)"> </text><text class="cls-11" transform="translate(751.43 579.77)"> </text></g><g id="shape46-236"><g id="shadow46-237"><rect class="cls-3" x="639.5" y="479.51" width="148" height="38" rx="9"/></g><rect class="cls-9" x="639.5" y="476.51" width="148" height="38" rx="9"/></g><g id="shape47-242"><g id="shadow47-243"><rect class="cls-3" x="639.5" y="438.51" width="147" height="36" rx="9"/></g><rect class="cls-9" x="639.5" y="435.51" width="147" height="36" rx="9"/></g><g id="shape48-248"><g id="shadow48-249"><rect class="cls-3" x="638.5" y="638.51" width="148" height="36" rx="9"/></g><rect class="cls-9" x="638.5" y="635.51" width="148" height="36" rx="9"/></g><g id="shape49-254"><g id="shadow49-255"><rect class="cls-3" x="638.5" y="729.51" width="148" height="36" rx="9"/></g><rect class="cls-9" x="638.5" y="726.51" width="148" height="36" rx="9"/></g><g id="shape66-260"><g id="shadow66-261"><rect class="cls-3" x="638.5" y="683.51" width="148" height="38" rx="9"/></g><rect class="cls-9" x="638.5" y="680.51" width="148" height="38" rx="9"/></g><g id="shape163-266"><g id="shadow163-267"><rect class="cls-3" x="639.5" y="181.51" width="147" height="36" rx="9"/></g><rect class="cls-5" x="639.5" y="178.51" width="147" height="36" rx="9"/></g><g id="shape17-272"><g id="shadow17-273"><rect class="cls-3" x="411.5" y="347.51" width="121" height="37" rx="9"/></g><rect class="cls-9" x="411.5" y="344.51" width="121" height="37" rx="9"/></g><g id="shape160-279"><g id="shadow160-280"><rect class="cls-3" x="638.5" y="225.51" width="148" height="36" rx="9"/></g><rect class="cls-5" x="638.5" y="222.51" width="148" height="36" rx="9"/></g><g id="shape164-285"><g id="shadow164-286"><rect class="cls-3" x="639.5" y="131.51" width="150" height="37" rx="9"/></g><rect class="cls-5" x="639.5" y="128.51" width="150" height="37" rx="9"/></g><g id="shape178-292"><g id="shadow178-293"><rect class="cls-3" x="412.5" y="266.51" width="121" height="33" rx="9"/></g><rect class="cls-7" x="412.5" y="263.51" width="121" height="33" rx="9"/></g><g id="shape179-298"><g id="shadow179-299"><rect class="cls-3" x="640.5" y="81.51" width="147" height="35" rx="9"/></g><rect class="cls-5" x="640.5" y="78.51" width="147" height="35" rx="9"/></g><g id="shape162-304"><g id="shadow162-305"><rect class="cls-3" x="639.5" y="394.51" width="147" height="36"/></g><rect class="cls-6" x="639.5" y="391.51" width="147" height="36"/></g><g id="shape180-310"><g id="shadow180-311"><rect class="cls-3" x="278.5" y="613.51" width="119" height="36" rx="9"/></g><rect class="cls-5" x="278.5" y="610.51" width="119" height="36" rx="9"/></g><g id="shape183-316"><g id="lend4"><path class="cls-12" d="M540,766.27l-6-3,6-3V766" transform="translate(0 0)"/></g><path class="cls-12" d="M539.85,763.25" transform="translate(0 0)"/></g><path class="cls-12" d="M404,806.68l-6-3,6-3V807" transform="translate(0 0)"/><path class="cls-12" d="M404.08,808.66" transform="translate(0 0)"/><text class="cls-13" transform="translate(563.82 740.11)">​</text><text class="cls-13" transform="translate(563.82 740.11)">​</text><g id="shape185-331"><path class="cls-12" d="M274,492.8l6,3-6,3V493" transform="translate(0 0)"/><path class="cls-12" d="M274.34,495.82" transform="translate(0 0)"/></g><g id="shape186-338"><path class="cls-12" d="M275,539.17l6,3-6,3V539" transform="translate(0 0)"/><path class="cls-12" d="M274.56,542.19" transform="translate(0 0)"/></g><g id="shape187-344"><path class="cls-12" d="M275,450.27l6,3-6,3V450" transform="translate(0 0)"/><path class="cls-12" d="M274.57,453.29" transform="translate(0 0)"/></g><g id="shape188-350"><path class="cls-12" d="M274,580.6l6,3-6,3V581" transform="translate(0 0)"/><path class="cls-12" d="M274.38,583.62" transform="translate(0 0)"/></g><g id="shape189-357"><g id="shadow189-358"><rect class="cls-3" x="34.5" y="613.51" width="108" height="36" rx="9"/></g><rect class="cls-5" x="34.5" y="610.51" width="108" height="36" rx="9"/></g><g id="shape190-363"><path class="cls-12" d="M273,625.22l6,3-6,3V625" transform="translate(0 0)"/><path class="cls-12" d="M272.64,628.24" transform="translate(0 0)"/></g><g id="shape191-371"><path class="cls-12" d="M275,667l6,3-6,3v-6" transform="translate(0 0)"/><path class="cls-12" d="M275,670" transform="translate(0 0)"/></g><g id="shape192-379"><path class="cls-12" d="M633,237.86l6,3-6,3V238" transform="translate(0 0)"/><path class="cls-12" d="M632.65,240.88" transform="translate(0 0)"/></g><g id="shape193-386"><path class="cls-12" d="M633,237.87l6,3-6,3V238" transform="translate(0 0)"/><path class="cls-12" d="M632.66,240.89" transform="translate(0 0)"/></g><g id="shape194-391"><path class="cls-12" d="M633,237.86l6,3-6,3V238" transform="translate(0 0)"/><path class="cls-12" d="M632.65,240.88" transform="translate(0 0)"/></g><g id="shape195-397"><path class="cls-12" d="M633,237.86l6,3-6,3V238" transform="translate(0 0)"/><path class="cls-12" d="M632.65,240.88" transform="translate(0 0)"/></g><g id="shape196-403"><path class="cls-12" d="M633,237.86l6,3-6,3V238" transform="translate(0 0)"/><path class="cls-12" d="M632.66,240.88" transform="translate(0 0)"/></g><g id="shape197-409"><path class="cls-12" d="M633,237.86l6,3-6,3V238" transform="translate(0 0)"/><path class="cls-12" d="M632.65,240.88" transform="translate(0 0)"/></g><g id="shape198-416"><path class="cls-12" d="M476.48,258l-3,6-3-6H476" transform="translate(0 0)"/><path class="cls-12" d="M473.46,257.94" transform="translate(0 0)"/></g><g id="shape210-422"><g id="shadow210-423"><rect class="cls-3" x="280.5" y="746.51" width="118" height="36" rx="9"/></g><rect class="cls-5" x="280.5" y="743.51" width="118" height="36" rx="9"/></g><g id="shape237-428"><path class="cls-12" d="M336.18,738l3-6,3,6H336" transform="translate(0 0)"/><path class="cls-12" d="M339.2,737.74" transform="translate(0 0)"/></g><g id="shape240-433"><path class="cls-12" d="M633,492.88l6,3-6,3V493" transform="translate(0 0)"/><path class="cls-12" d="M633.33,495.9" transform="translate(0 0)"/></g><g id="shape241-439"><path class="cls-12" d="M632,539.05l6,3-6,3V539" transform="translate(0 0)"/><path class="cls-12" d="M632.22,542.07" transform="translate(0 0)"/></g><g id="shape242-445"><path class="cls-12" d="M642,593.05l6,3-6,3V593" transform="translate(0 0)"/><path class="cls-12" d="M641.68,596.07" transform="translate(0 0)"/></g><g id="shape243-451"><path class="cls-12" d="M633,785.78l6,3-6,3V786" transform="translate(0 0)"/><path class="cls-12" d="M632.65,788.8" transform="translate(0 0)"/></g><g id="shape245-457"><path class="cls-12" d="M476,413.1l-6-3,6-3V413" transform="translate(0 0)"/><path class="cls-12" d="M476.15,410.08" transform="translate(0 0)"/></g><g id="shape246-463"><path class="cls-12" d="M539,366.3l-6-3,6-3V366" transform="translate(0 0)"/><path class="cls-12" d="M538.79,363.28" transform="translate(0 0)"/></g><g id="shape248-475"><g id="shadow248-476"><rect class="cls-3" x="279.5" y="349.51" width="121" height="36" rx="9"/></g><rect class="cls-5" x="279.5" y="346.51" width="121" height="36" rx="9"/></g><g id="shape251-481"><g id="shadow251-482"><rect class="cls-3" x="281.5" y="794.51" width="117" height="35" rx="9"/></g><rect class="cls-10" x="281.5" y="791.51" width="117" height="35" rx="9"/></g><g id="shape252-487"><g id="shadow252-488"><rect class="cls-3" x="413.5" y="749.51" width="120" height="33" rx="9"/></g><rect class="cls-10" x="413.5" y="746.51" width="120" height="33" rx="9"/></g><g id="shape253-493"><path class="cls-12" d="M336.42,786l3-6,3,6H336" transform="translate(0 0)"/><path class="cls-12" d="M339.44,785.8" transform="translate(0 0)"/></g><g id="shape254-498"><g id="shadow254-499"><rect class="cls-3" x="412.5" y="613.51" width="121" height="127" rx="9"/></g><rect class="cls-10" x="412.5" y="610.51" width="121" height="127" rx="9"/><text class="cls-11" transform="translate(519 627.07)"> </text><text class="cls-11" transform="translate(521.71 627.07)"> </text><text class="cls-11" transform="translate(524.42 627.07)"> </text><text class="cls-11" transform="translate(527.14 627.07)"> </text><text class="cls-11" transform="translate(529.85 627.07)"> </text><text class="cls-11" transform="translate(532.56 627.07)"> </text><text class="cls-11" transform="translate(535.27 627.07)"> </text></g><g id="shape255-504"><path class="cls-12" d="M414,691.46l6,3-6,3V691" transform="translate(0 0)"/><path class="cls-12" d="M414.1,694.48" transform="translate(0 0)"/></g><g id="shape18-509"><g id="shadow18-510"><rect class="cls-3" x="420.5" y="638.51" width="107" height="43" rx="9"/></g><rect class="cls-9" x="420.5" y="635.51" width="107" height="43" rx="9"/></g><g id="shape1009-516"><g id="shadow1009-517"><rect class="cls-3" x="419.5" y="713.51" width="107" height="21" rx="9"/></g><rect class="cls-9" x="419.5" y="710.51" width="107" height="21" rx="9"/></g><g id="shape1010-522"><g id="shadow1010-523"><rect class="cls-3" x="419.5" y="686.51" width="107" height="21" rx="9"/></g><rect class="cls-9" x="419.5" y="683.51" width="107" height="21" rx="9"/></g><g id="shape1013-528"><path class="cls-12" d="M414,718.1l6,3-6,3V718" transform="translate(0 0)"/><path class="cls-12" d="M414.1,721.12" transform="translate(0 0)"/></g><g id="shape224-533"><g id="shadow224-534"><rect class="cls-3" x="280.5" y="701.51" width="118" height="33" rx="9"/></g><rect class="cls-10" x="280.5" y="698.51" width="118" height="33" rx="9"/></g><path class="cls-12" d="M540,676.89l-6-3,6-3V677" transform="translate(0 0)"/><path class="cls-12" d="M539.85,673.87" transform="translate(0 0)"/><g id="shape1016-545"><g id="shadow1016-546"><rect class="cls-3" x="640.5" y="343.51" width="147" height="36" rx="9"/></g><rect class="cls-5" x="640.5" y="340.51" width="147" height="36" rx="9"/></g><g id="shape1017-551"><g id="shadow1017-552"><rect class="cls-3" x="639.5" y="297.51" width="148" height="36" rx="9"/></g><rect class="cls-5" x="639.5" y="294.51" width="148" height="36" rx="9"/></g><g id="shape1018-557"><path class="cls-12" d="M538,325.26l-6-3,6-3V325" transform="translate(0 0)"/><path class="cls-12" d="M538.17,322.24" transform="translate(0 0)"/></g><g id="shape1019-563"><path class="cls-12" d="M716.25,288l-3,6-3-6H716" transform="translate(0 0)"/><path class="cls-12" d="M713.23,288.12" transform="translate(0 0)"/></g><g id="shape1020-568"><path class="cls-12" d="M710.21,336l3-6,3,6H710" transform="translate(0 0)"/><path class="cls-12" d="M713.23,330.16" transform="translate(0 0)"/></g><g id="shape1021-574"><path class="cls-12" d="M414,654.11l6,3-6,3V654" transform="translate(0 0)"/><path class="cls-12" d="M414.23,657.13" transform="translate(0 0)"/></g><g id="shape181-579"><g id="shadow181-580"><rect class="cls-3" x="348.5" y="395.51" width="121" height="36" rx="9"/></g><rect class="cls-9" x="348.5" y="392.51" width="121" height="36" rx="9"/></g><g id="shape1022-585"><path class="cls-12" d="M795,149.58l-6-3,6-3V150" transform="translate(0 0)"/><path class="cls-12" d="M795,146.56" transform="translate(0 0)"/></g><g id="shape1023-590"><path class="cls-12" d="M792,199.26l-6-3,6-3V199" transform="translate(0 0)"/><path class="cls-12" d="M792.19,196.24" transform="translate(0 0)"/></g><g id="shape1024-595"><path class="cls-12" d="M793,361.26l-6-3,6-3V361" transform="translate(0 0)"/><path class="cls-12" d="M793.13,358.24" transform="translate(0 0)"/></g><g id="shape1025-600"><path class="cls-12" d="M793,361.26l-6-3,6-3V361" transform="translate(0 0)"/><path class="cls-12" d="M793.13,358.24" transform="translate(0 0)"/></g><g id="shape1026-605"><path class="cls-12" d="M793,361.26l-6-3,6-3V361" transform="translate(0 0)"/><path class="cls-12" d="M793.12,358.24" transform="translate(0 0)"/></g><g id="shape1027-610"><path class="cls-12" d="M793,361.26l-6-3,6-3V361" transform="translate(0 0)"/><path class="cls-12" d="M793.12,358.24" transform="translate(0 0)"/></g><g id="shape1028-615"><path class="cls-12" d="M793,361.26l-6-3,6-3V361" transform="translate(0 0)"/><path class="cls-12" d="M793.13,358.24" transform="translate(0 0)"/></g><g id="shape1029-620"><path class="cls-12" d="M793,361.26l-6-3,6-3V361" transform="translate(0 0)"/><path class="cls-12" d="M793.12,358.24" transform="translate(0 0)"/></g><g id="shape1030-625"><path class="cls-12" d="M793,361.26l-6-3,6-3V361" transform="translate(0 0)"/><path class="cls-12" d="M793.12,358.24" transform="translate(0 0)"/></g><g id="shape1031-630"><path class="cls-12" d="M793,361.26l-6-3,6-3V361" transform="translate(0 0)"/><path class="cls-12" d="M793.13,358.24" transform="translate(0 0)"/></g><g id="shape1032-635"><path class="cls-12" d="M793,361.27l-6-3,6-3V361" transform="translate(0 0)"/><path class="cls-12" d="M793.13,358.25" transform="translate(0 0)"/></g><g id="shape1033-640"><g id="shadow1033-641"><rect class="cls-3" x="644.5" y="840.51" width="131" height="21" rx="9"/></g><rect class="cls-9" x="644.5" y="837.51" width="131" height="21" rx="9"/></g><g id="shape1034-646"><g id="shadow1034-647"><rect class="cls-3" x="646.5" y="867.51" width="129" height="21" rx="9"/></g><rect class="cls-9" x="646.5" y="864.51" width="129" height="21" rx="9"/></g><g id="shape1035-652"><g id="shadow1035-653"><rect class="cls-3" x="647.5" y="895.51" width="125" height="21" rx="9"/></g><rect class="cls-9" x="647.5" y="892.51" width="125" height="21" rx="9"/></g><g id="shape1037-658"><g id="shadow1037-659"><rect class="cls-3" x="414.5" y="887.51" width="120" height="21" rx="9"/></g><rect class="cls-5" x="414.5" y="884.51" width="120" height="21" rx="9"/></g><g id="shape1038-664"><g id="shadow1038-665"><rect class="cls-3" x="414.5" y="914.51" width="120" height="33" rx="9"/></g><rect class="cls-5" x="414.5" y="911.51" width="120" height="33" rx="9"/></g><g id="shape1039-671"><path class="cls-12" d="M622,845l6,3-6,3V845" transform="translate(0 0)"/><path class="cls-12" d="M621.92,848.05" transform="translate(0 0)"/></g><g id="shape1040-677"><path class="cls-12" d="M640,872.39l6,3-6,3V872" transform="translate(0 0)"/><path class="cls-12" d="M640.33,875.41" transform="translate(0 0)"/></g><g id="shape1041-683"><path class="cls-12" d="M641,900.34l6,3-6,3V900" transform="translate(0 0)"/><path class="cls-12" d="M641.26,903.36" transform="translate(0 0)"/></g><g id="group1047-689"><g id="shape1042-690"><g id="shadow1042-691"><rect class="cls-3" x="18.5" y="757.51" width="139" height="196"/></g><rect class="cls-4" x="18.5" y="754.51" width="139" height="196"/><text class="cls-14" transform="translate(111.18 780.88)"> </text><text class="cls-14" transform="translate(114.8 780.88)"> </text><text class="cls-14" transform="translate(118.42 780.88)"> </text><text class="cls-14" transform="translate(122.03 780.88)"> </text><text class="cls-14" transform="translate(125.65 780.88)"> </text><text class="cls-14" transform="translate(129.27 780.88)"> </text><text class="cls-14" transform="translate(132.89 780.88)"> </text><text class="cls-14" transform="translate(136.5 780.88)"> </text></g><g id="shape1043-696"><g id="shadow1043-697"><rect class="cls-3" x="26.5" y="797.51" width="119" height="32" rx="9"/></g><rect class="cls-10" x="26.5" y="794.51" width="119" height="32" rx="9"/></g><g id="shape1044-702"><g id="shadow1044-703"><rect class="cls-3" x="27.5" y="834.51" width="118" height="33" rx="9"/></g><rect class="cls-5" x="27.5" y="831.51" width="118" height="33" rx="9"/></g><g id="shape1045-708"><g id="shadow1045-709"><rect class="cls-3" x="27.5" y="871.51" width="118" height="33" rx="9"/></g><rect class="cls-9" x="27.5" y="868.51" width="118" height="33" rx="9"/></g></g><g id="shape1048-721"><g id="shadow1048-722"><path class="cls-15" d="M655.79,590.51H770a9,9,0,0,1,9,9h0a9,9,0,0,1-9,9H655.79a9,9,0,0,1-9-9h0A9,9,0,0,1,655.79,590.51Z" transform="translate(0 0)"/></g><path class="cls-16" d="M655.79,587.51H770a9,9,0,0,1,9,9h0a9,9,0,0,1-9,9H655.79a9,9,0,0,1-9-9h0A9,9,0,0,1,655.79,587.51Z" transform="translate(0 0)"/></g><g id="shape1049-727"><g id="shadow1049-728"><path class="cls-15" d="M655.83,611.51H770a9,9,0,0,1,9,9h0a9,9,0,0,1-9,9H655.83a9,9,0,0,1-9-9h0A9,9,0,0,1,655.83,611.51Z" transform="translate(0 0)"/></g><path class="cls-16" d="M655.83,608.51H770a9,9,0,0,1,9,9h0a9,9,0,0,1-9,9H655.83a9,9,0,0,1-9-9h0A9,9,0,0,1,655.83,608.51Z" transform="translate(0 0)"/></g><g id="shape1050-733"><path class="cls-12" d="M642,614.89l6,3-6,3V615" transform="translate(0 0)"/><path class="cls-12" d="M641.72,617.91" transform="translate(0 0)"/></g><path class="cls-12" d="M632,447.05l6,3-6,3V447" transform="translate(0 0)"/><g id="shape191-371-2" data-name="shape191-371"><path class="cls-12" d="M135,937l6,3-6,3v-6" transform="translate(0 0)"/><path class="cls-12" d="M135,940" transform="translate(0 0)"/></g></g><g id="txt"><text class="cls-17" transform="translate(76.1 120.09)">사용자</text><text class="cls-18" transform="translate(48.57 166.17)">시각적 개체 속성 <tspan x="6.09" y="14.5">패널을 엽니다.</tspan></text><text class="cls-18" transform="translate(73.61 357.17)">필터를 <tspan x="-11.79" y="14.5">적용합니다.</tspan></text><text class="cls-18" transform="translate(42.71 261.17)">시각적 개체 속성을 <tspan x="18.61" y="14.5">변경합니다.</tspan></text><text class="cls-19" transform="translate(176.62 239.17)">새 속성</text><text class="cls-19" transform="translate(176.86 186.86)">책갈피 필터/<tspan x="19.92" y="13.2">선택</tspan></text><text class="cls-20" transform="translate(71.83 780.8)">범례</text><text class="cls-18" transform="translate(75.14 814.54)">개체</text><text class="cls-19" transform="translate(76.6 917.86)">작업/<tspan x="-10.48" y="13.2">개체 흐름</tspan></text><text class="cls-19" transform="translate(176.64 300.86)">선택 영역</text><text class="cls-18" transform="translate(60.37 302.17)">선택 가능한 <tspan x="-12.26" y="14.5">요소(다른 시각적 </tspan><tspan x="-18.69" y="29">개체)를 클릭합니다.</tspan></text><text class="cls-18" transform="translate(74.89 539.17)">URL을 <tspan x="-13.07" y="14.5">클릭합니다.</tspan></text><text class="cls-18" transform="translate(43.12 450.68)">편집 모드의 속성을 <tspan x="18.61" y="14.5">변경합니다.</tspan></text><text class="cls-18" transform="translate(55.23 580.68)">데이터 요소를 <tspan x="-10.73" y="14.5">마우스로 가리키기</tspan></text><text class="cls-19" transform="translate(178.28 390.86)">새 크기</text><text class="cls-19" transform="translate(509.14 490.68)">호출</text><text class="cls-19" transform="translate(509.14 446.53)">호출</text><text class="cls-19" transform="translate(176.64 347.86)">필터 조건</text><text class="cls-18" transform="translate(47.1 626.02)">상황에 맞는 메뉴 <tspan x="30.4" y="14.5">클릭</tspan></text><text class="cls-18" transform="translate(42.74 666.92)">선택 가능한 요소를 <tspan x="18.61" y="14.5">클릭합니다.</tspan></text><text class="cls-19" transform="translate(203.99 535.61)">URL</text><text class="cls-19" transform="translate(187.52 554.62)">선택 영역을 <tspan x="-10.73" y="13.2">포함하는 데이터 </tspan><tspan x="17.88" y="26.4">요소</tspan></text><text class="cls-19" transform="translate(187.59 639.62)">선택 영역을 <tspan x="-10.73" y="13.2">포함하는 데이터 </tspan><tspan x="17.88" y="26.4">요소</tspan></text><text class="cls-19" transform="translate(185.01 597.62)">선택 영역을 <tspan x="-10.73" y="13.2">포함하는 데이터 </tspan><tspan x="17.88" y="26.4">요소</tspan></text><text class="cls-17" transform="translate(311.58 288.09)">시각적 개체</text><text class="cls-18" transform="translate(55.11 397.21)">시각적 개체의 <tspan x="-11.79" y="14.5">크기를 조정합니다.</tspan></text><text class="cls-18" transform="translate(68.2 209.28)">책갈피를 <tspan x="-6.43" y="14.5">선택합니다.</tspan></text><text class="cls-18" transform="translate(55.71 492.44)">시각적 개체에 <tspan x="-11.79" y="14.5">필터를 적용합니다.</tspan></text><text class="cls-19" transform="translate(189.11 491.13)">필터 조건</text><text class="cls-18" transform="translate(76.14 851.54)">작업</text><text class="cls-18" transform="translate(298.23 811.82)">선택 항목 작성기</text><text class="cls-18" transform="translate(432.73 830.91)">더 많은 데이터를 <tspan x="13.25" y="14.5">가져옵니다.</tspan></text><text class="cls-18" transform="translate(69.94 889.03)">메서드</text><text class="cls-18" transform="translate(422.6 871.32)">렌더링을 시작합니다.</text><text class="cls-18" transform="translate(423.24 898.71)">렌더링을 종료합니다.</text><text class="cls-18" transform="translate(425.16 924.16)">렌더링 예외를 ca<tspan class="cls-21" x="81.9" y="0">t</tspan><tspan x="85.27" y="0">ch</tspan><tspan x="30.99" y="14.5">합니다.</tspan></text><text class="cls-18" transform="translate(308.14 758.86)">selectionID를 <tspan x="8.71" y="14.5">만듭니다.</tspan></text><text class="cls-18" transform="translate(462.72 724.32)">선택</text><text class="cls-18" transform="translate(312.5 718.82)">selectionID</text><text class="cls-18" transform="translate(310.76 665.82)">선택 항목을 <tspan x="0.73" y="14.5">적용합니다.</tspan></text><text class="cls-18" transform="translate(291.37 626.82)">상황에 맞는 메뉴를 <tspan x="18.61" y="14.5">표시합니다.</tspan></text><text class="cls-18" transform="translate(444.63 627.76)">선택 관리자</text><text class="cls-19" transform="translate(508.52 536.86)">호출</text><text class="cls-19" transform="translate(508.52 576.91)">호출</text><text class="cls-19" transform="translate(582.64 781.91)">호출</text><text class="cls-19" transform="translate(557.79 647.17)">인스턴스</text><text class="cls-19" transform="translate(559.79 693.17)">인스턴스</text><text class="cls-19" transform="translate(560.79 740.17)">인스턴스</text><text class="cls-18" transform="translate(311.24 580.97)">도구 설명을 <tspan x="0.73" y="14.5">표시합니다.</tspan></text><text class="cls-18" transform="translate(306.09 545.97)">URL을 엽니다.</text><text class="cls-18" transform="translate(317.79 490.97)">데이터를 <tspan x="-11.79" y="14.5">필터링합니다.</tspan></text><text class="cls-18" transform="translate(293.48 457.97)">속성을 저장합니다.</text><text class="cls-18" transform="translate(316 367.97)">콜백 등록</text><text class="cls-18" transform="translate(450.79 325.97)">업데이트</text><text class="cls-18" transform="translate(457.25 284.17)">생성자</text><text class="cls-19" transform="translate(199.64 448.86)">새 값</text><text class="cls-18" transform="translate(439.71 766.32)">지역화 관리자</text><text class="cls-19" transform="translate(573.64 860.91)">호출</text><text class="cls-19" transform="translate(575.64 889.91)">호출</text><text class="cls-19" transform="translate(580.64 922.91)">호출</text><text class="cls-18" transform="translate(429.04 698.32)">showCon<tspan class="cls-22" x="43.83" y="0">t</tspan><tspan x="47.25" y="0">extMenu</tspan></text><text class="cls-23" transform="translate(427.48 653.32)">r<tspan class="cls-24" x="3.46" y="0">egis</tspan><tspan class="cls-25" x="22.34" y="0">t</tspan><tspan class="cls-24" x="25.76" y="0">erOnSelection </tspan><tspan class="cls-24"><tspan x="26.54" y="14.5">Call</tspan><tspan class="cls-21" x="43.56" y="14.5">b</tspan><tspan x="49.73" y="14.5">ack</tspan></tspan></text><text class="cls-23" transform="translate(673.41 906.32)">r<tspan class="cls-24" x="3.46" y="0">endering</tspan><tspan class="cls-26" x="45.59" y="0">F</tspan><tspan class="cls-24" x="50.36" y="0">ailed</tspan></text><text class="cls-23" transform="translate(668.58 879.32)">r<tspan class="cls-24" x="3.46" y="0">enderingFinished</tspan></text><text class="cls-23" transform="translate(670.12 852.32)">r<tspan class="cls-24" x="3.46" y="0">endering</tspan><tspan class="cls-27" x="45.59" y="0">S</tspan><tspan class="cls-24" x="50.91" y="0">ta</tspan><tspan class="cls-28" x="59.87" y="0">r</tspan><tspan class="cls-25" x="63.83" y="0">t</tspan><tspan class="cls-24" x="67.25" y="0">ed</tspan></text><text class="cls-18" transform="translate(680.08 828.32)">e<tspan class="cls-29" x="5.61" y="0">v</tspan><tspan class="cls-30" x="10.63" y="0">entSe</tspan><tspan class="cls-31" x="37.15" y="0">r</tspan><tspan x="41.24" y="0">vice</tspan></text><text class="cls-18" transform="translate(675.52 792.32)">fe<tspan class="cls-32" x="8.82" y="0">t</tspan><tspan x="12.18" y="0">chMo</tspan><tspan class="cls-32" x="39.32" y="0">r</tspan><tspan x="42.78" y="0">eData</tspan></text><text class="cls-18" transform="translate(655.22 748.36)">c<tspan class="cls-21" x="4.92" y="0">r</tspan><tspan class="cls-30" x="8.38" y="0">ea</tspan><tspan class="cls-25" x="19.44" y="0">t</tspan><tspan x="22.86" y="0">eSelectionIdBuilder</tspan></text><text class="cls-18" transform="translate(648.78 704.36)">c<tspan class="cls-21" x="4.92" y="0">r</tspan><tspan class="cls-30" x="8.38" y="0">ea</tspan><tspan class="cls-25" x="19.44" y="0">t</tspan><tspan x="22.86" y="0">eLocalizationManager</tspan></text><text class="cls-18" transform="translate(655.04 657.36)">c<tspan class="cls-21" x="4.92" y="0">r</tspan><tspan class="cls-30" x="8.38" y="0">ea</tspan><tspan class="cls-25" x="19.44" y="0">t</tspan><tspan x="22.86" y="0">eSelectionManager</tspan></text><text class="cls-18" transform="translate(702.05 621.36)">이동</text><text class="cls-18" transform="translate(702.05 599.36)">표시</text><text class="cls-33" transform="translate(679.66 580.36)">t<tspan class="cls-24" x="3.43" y="0">ooltipSe</tspan><tspan class="cls-34" x="42.08" y="0">r</tspan><tspan class="cls-24" x="46.17" y="0">vice</tspan></text><text class="cls-18" transform="translate(689.49 546.36)">launchUrl</text><text class="cls-18" transform="translate(678.28 499.36)">applyJsonFil<tspan class="cls-22" x="56.33" y="0">t</tspan><tspan x="59.76" y="0">er</tspan></text><text class="cls-18" transform="translate(673.62 457.36)">pe<tspan class="cls-35" x="11.94" y="0">r</tspan><tspan x="15.64" y="0">sistP</tspan><tspan class="cls-21" x="36.57" y="0">r</tspan><tspan x="40.03" y="0">ope</tspan><tspan class="cls-28" x="58.29" y="0">r</tspan><tspan x="62.24" y="0">ties</tspan></text><text class="cls-18" transform="translate(650.41 355.36)">시각적 개체에게서 작업을 <tspan x="34.7" y="14.5">수신합니다.</tspan></text><text class="cls-19" transform="translate(581.14 314.68)">호출</text><text class="cls-18" transform="translate(650.41 310.36)">시각적 개체에 업데이트를 <tspan x="40.06" y="14.5">보냅니다.</tspan></text><text class="cls-19" transform="translate(581.14 212.68)">호출</text><text class="cls-19" transform="translate(563.14 183.68)">호출</text><text class="cls-18" transform="translate(662.93 238.36)">사용자에게서 작업을 <tspan x="22.18" y="14.5">수신합니다.</tspan></text><text class="cls-18" transform="translate(656.79 193.36)">“onSelectionCall<tspan class="cls-21" x="75.94" y="0">b</tspan><tspan class="cls-30" x="82.11" y="0">ack”을 </tspan><tspan x="28.32" y="14.5">호출합니다.</tspan></text><text class="cls-18" transform="translate(358.14 414.33)">“onSelectionCall<tspan class="cls-21" x="75.94" y="0">b</tspan><tspan class="cls-30" x="82.11" y="0">ack”</tspan></text><text class="cls-36" transform="translate(646.33 143.36)">“Enumera<tspan class="cls-37" x="45.2" y="0">t</tspan><tspan x="48.58" y="0">eObject Instances”</tspan><tspan x="32.78" y="14.5">를 호출합니다.</tspan></text><text class="cls-18" transform="translate(655.77 93.36)">시각적 개체 인스턴스를 <tspan x="34.7" y="14.5">만듭니다.</tspan></text><text class="cls-19" transform="translate(497.14 89.68)">호출</text><text class="cls-17" transform="translate(648.78 53.09)">시각적 개체 API/<tspan class="cls-38" x="82.45" y="0">P</tspan><tspan class="cls-30" x="88.57" y="0">o</tspan><tspan class="cls-39" x="95.11" y="0">w</tspan><tspan x="103.53" y="0">er BI</tspan></text><text class="cls-40" transform="translate(673.12 413.09)">P<tspan class="cls-24" x="6.12" y="0">o</tspan><tspan class="cls-41" x="12.66" y="0">w</tspan><tspan class="cls-24" x="21.08" y="0">er BI 호스트</tspan></text><text class="cls-18" transform="translate(430.27 360.97)">enumera<tspan class="cls-22" x="41.85" y="0">t</tspan><tspan x="45.28" y="0">eObject </tspan><tspan x="19.3" y="14.5">Instances</tspan></text></g><g id="arrows"><path class="cls-12" d="M633.73,456.27" transform="translate(0 0)"/><line class="cls-42" x1="400.5" y1="495.8" x2="633.33" y2="495.8"/><line class="cls-42" x1="399.5" y1="541.51" x2="632.22" y2="541.51"/><line class="cls-42" x1="397.83" y1="449.84" x2="633.33" y2="449.84"/><polyline class="cls-43" points="474 410.26 577.45 410.26 577.45 198.05 639.6 198.05"/><path class="cls-43" d="M535,360" transform="translate(0 0)"/><path class="cls-43" d="M559.26,360" transform="translate(0 0)"/><polyline class="cls-43" points="535.01 363.03 559.26 363.03 559.26 147.03 639.6 147.03"/><polyline class="cls-43" points="472.59 258.47 472.59 94.01 641.6 94.01"/><polyline class="cls-43" points="791.18 144.03 798.76 144.03 798.76 238.77 787.39 238.77"/><line class="cls-42" x1="787.39" y1="194.05" x2="798.76" y2="194.05"/><line class="cls-42" x1="713.36" y1="258.47" x2="713.36" y2="288.03"/><line class="cls-42" x1="713.36" y1="334.26" x2="713.36" y2="339.82"/><path class="cls-43" d="M793.07,354.47" transform="translate(0 0)"/><path class="cls-43" d="M806.34,354.47" transform="translate(0 0)"/><polyline class="cls-43" points="789.66 358.47 806.34 358.47 806.34 868.28 781.58 868.28"/><line class="cls-42" x1="786.63" y1="449.84" x2="806.34" y2="449.84"/><line class="cls-42" x1="786.63" y1="491.84" x2="806.34" y2="491.84"/><line class="cls-42" x1="786.63" y1="538.84" x2="806.34" y2="538.84"/><line class="cls-42" x1="786.63" y1="594.84" x2="806.34" y2="594.84"/><line class="cls-42" x1="786.63" y1="696.84" x2="806.34" y2="696.84"/><line class="cls-42" x1="786.02" y1="650.56" x2="805.73" y2="650.56"/><line class="cls-42" x1="786.63" y1="740.84" x2="806.34" y2="740.84"/><line class="cls-42" x1="786.63" y1="784.84" x2="806.34" y2="784.84"/><polyline class="cls-43" points="143.94 166.01 256.11 166.01 256.11 396.41 143.94 396.41"/><line class="cls-42" x1="143.94" y1="210.72" x2="256.11" y2="210.72"/><line class="cls-42" x1="143.94" y1="310.72" x2="256.11" y2="310.72"/><line class="cls-42" x1="143.94" y1="260.72" x2="256.11" y2="260.72"/><line class="cls-42" x1="143.94" y1="356.72" x2="256.11" y2="356.72"/><path class="cls-43" d="M618.38,658.64" transform="translate(0 0)"/><path class="cls-43" d="M400.5,570" transform="translate(0 0)"/><polyline class="cls-43" points="412.74 657.6 408.19 657.6 408.19 427.7"/><path class="cls-43" d="M214.67,526.26" transform="translate(0 0)"/><line class="cls-42" x1="641.62" y1="596.46" x2="551.68" y2="596.46"/><polyline class="cls-43" points="396.57 626.79 403.14 626.79 403.14 693.99 415.26 693.99"/><line class="cls-42" x1="396.57" y1="721.77" x2="412.74" y2="721.77"/><line class="cls-42" x1="339.45" y1="687.41" x2="339.45" y2="698.52"/><line class="cls-42" x1="339.45" y1="736.42" x2="339.45" y2="742.99"/><line class="cls-42" x1="339.45" y1="790.99" x2="339.45" y2="783.41"/><polyline class="cls-43" points="636.57 656.07 551.68 656.07 551.68 674.26 537.03 674.26"/><polyline class="cls-43" points="636.57 701.55 560.27 701.55 560.27 763.19 537.03 763.19"/><polyline class="cls-43" points="636.57 742.51 573.41 742.51 573.41 804.16 401.12 804.16"/><polyline class="cls-43" points="533.5 834.93 592.61 834.93 592.61 788.2 632.53 788.2"/><path class="cls-43" d="M476.91,888" transform="translate(0 0)"/><polyline class="cls-43" points="543.6 866.78 603.73 866.78 603.73 847.58 622.93 847.58"/><polyline class="cls-43" points="640.11 875.37 616.36 875.37 616.36 895.07 531.47 895.07"/><polyline class="cls-43" points="640.11 902.66 622.93 902.66 622.93 926.91 531.47 926.91"/><line class="cls-42" x1="32.15" y1="939.55" x2="133.33" y2="939.55"/><polyline class="cls-43" points="337.45 385.25 337.45 410.26 346.3 410.26"/><line class="cls-42" x1="143.94" y1="453.84" x2="275" y2="453.84"/><line class="cls-42" x1="143.94" y1="495.8" x2="274" y2="495.8"/><line class="cls-42" x1="143.94" y1="541.65" x2="274.56" y2="541.65"/><line class="cls-42" x1="143.94" y1="583.32" x2="274" y2="583.32"/><line class="cls-42" x1="143.94" y1="627.79" x2="272.78" y2="627.79"/><line class="cls-42" x1="143.94" y1="669.22" x2="275" y2="669.22"/><path class="cls-43" d="M535,322.11h20.31s0-5.18,3.94-5.18,3.67,5.18,3.67,5.18h11.36s-.54-4.55,3.16-4.55c3.16,0,3,4.55,3,4.55h44V313H639.6" transform="translate(0 0)"/><path class="cls-43" d="M256.11,240.77H467.25s1.18-5.59,5.34-5.59c3.89,0,5.05,5.59,5.05,5.59H555s-.21-5.59,4.26-5.59c3.78,0,3.62,5.59,3.62,5.59h10.44s-.37-5.59,4.13-5.59c4,0,3.37,5.59,3.37,5.59h52.91" transform="translate(0 0)"/><path class="cls-43" d="M399.5,582.33H405s.31-3.25,3-3.25c2.46,0,2.46,3.25,2.46,3.25H551.68V618.2h89.94" transform="translate(0 0)"/></g></svg>